<svg xmlns="http://www.w3.org/2000/svg" width="846" height="846" viewBox="0 0 846 846">
  <g id="Group_1" data-name="Group 1" transform="translate(-852 -1227)">
    <g id="Ellipse_3" data-name="Ellipse 3" transform="translate(852 1227)" fill="#54b69b" stroke="#1d353c" stroke-width="45">
      <circle cx="423" cy="423" r="423" stroke="none"/>
      <circle cx="423" cy="423" r="400.5" fill="none"/>
    </g>
    <path id="Union_2" data-name="Union 2" d="M232.357,633.758s14.625,2.724,22.291-14.6S244.194,584.518,237,564.9c-19.273-57.538,7.961-106.964,7.961-106.964s-53.077,14.039-75.635,15.376-63.03,7.354-59.049,45.459,45.779,37.437,45.779,37.437,25.212-6.016,20.568-23.4-27.866-20.056-27.866-20.056,11.279-26.741,36.491-20.056,34.832,21.727,31.846,47.465-15.923,48.134-47.769,54.819-53.741-4.011-68.337-15.376-35.827-30.752-41.8-57.493S53.885,465.29,73.125,445.9s55.731-38.774,55.731-38.774-19.24-6.685-40.471-15.377-47.769-19.387-48.433,9.359S73.125,415.82,73.125,415.82,69.172,431.428,57.2,436.544c-13.333,5.7-35.1.319-47.77-20.724-24.548-40.78,1.991-88.914,43.125-94.262,35.827-2.674,88.241,18.719,88.241,18.719s-22.558-15.376-30.52-34.095c-23.221-60.168,8.626-80.891,6.635-100.947s-7.961-23.4-22.558-33.426c-39.808-17.382-42.462,24.067-33.836,30.083S77.769,193.2,77.769,193.2,81.086,215.264,60.52,214.6,31.326,192.534,39.952,171.81s37.817-42.786,76.962-26.741c17.3,7.091,28.617,28.907,31.846,48.133,4.173,24.842-2.221,48.012,0,58.83,3.981,19.387,10.616,39.443,43.789,39.443s34.5-39.443,34.5-39.443-7.961-8.023-9.952-41.449S237,150.417,237,150.417s2.653-13.37-13.933-42.785c6.635-20.056,11.824-34.751,25.212-52.813C282,9.323,336.3,1.531,350.7.245L350.708,0s.63.019,1.8.1C353.677.019,354.3,0,354.3,0l0,.242c14.427,1.275,69.037,9.026,102.942,54.425,13.452,18.012,18.667,32.666,25.333,52.666-16.666,29.334-14,42.667-14,42.667s22,26.666,20,60-10,41.333-10,41.333,1.333,39.334,34.666,39.334,40-20,44-39.334c2.232-10.788-4.193-33.894,0-58.666,3.245-19.173,14.614-40.928,32-48,39.334-16,68.666,6,77.333,26.666s0,42-20.667,42.667-17.333-21.334-17.333-21.334,8.667,14.666,17.333,8.666,6-47.333-34-30c-14.666,10-20.666,13.333-22.667,33.333s30,40.667,6.667,100.667c-8,18.667-30.667,34-30.667,34S617.907,318,653.907,320.666c41.333,5.333,68,53.333,43.333,94-12.728,20.984-34.6,26.351-48,20.667-12.029-5.1-16-20.667-16-20.667s34,14,33.333-14.666-27.333-18-48.667-9.334S577.24,406,577.24,406s36.667,19.334,56,38.667,20,49.333,14,76-27.334,46-42,57.333-36.667,22-68.666,15.333-45-29-48-54.666,6.666-40.666,32-47.334,36.667,20,36.667,20-23.333,2.667-28,20,20.667,23.333,20.667,23.333,42,.667,46-37.333-36.667-44-59.333-45.333-76-15.333-76-15.333,27.365,49.288,8,106.666c-7.228,19.564-25.434,36.837-17.732,54.11S473.241,632,473.241,632s-17.34,18.044-40.605,9.486-34.547-36.18-34.547-36.18-7.343,15.806-22.865,23.333S336,635.415,336,635.415s19.256-8.894,24.976-16.106c17.838-23.4,12.354-52.823-5.368-86.831s-16.34-63.724-16.34-63.724l.545-22.323c-14.722,26.809-29.514,46.984-35.65,66.323A87.9,87.9,0,0,0,300.5,550.11c1.366,10.014,5.14,25.356,15.544,30.327,15.9,7.6,29.133-12.029,29.133-12.029,1.565.4,3.655,15.628-1.455,23.159s-12.282,15.781-28.03,16.819a29.07,29.07,0,0,1-9.229-.942c-4.647,17.612-17.144,33.27-33.693,35.825a59.745,59.745,0,0,1-9.124.711C243.9,643.981,232.357,633.758,232.357,633.758Z" transform="translate(921.424 1325.998)" fill="#1d353c"/>
    <path id="Union_3" data-name="Union 3" d="M409.361,601.8c-16.962-33.531,5.128-55.622,0-88.758-2.366-19.329-2.761-33.136-35.108-84.418-24.24-38.43-31.765-90.6-34.014-114.33-1.852,23.733-8.583,75.9-32.824,114.33-32.347,51.282-32.742,65.089-35.109,84.418-5.128,33.136,16.963,55.227,0,88.758-9.467,16.962-27.613,13.018-27.613,13.018,22.09-14.2,13.018-44.576,3.155-60.75s-24.458-61.538,1.973-108.482c15.779-31.953,18.54-37.475,26.825-65.089s13.2-78.895,13.2-78.895-20.308,75.861-73.282,103.872c-32.924,20.774-73.6,23.9-91.135,30.668S78.46,452.68,79.465,491.984s33.217,52.61,52.07,55.661,44.87-5.152,46.325-29.985-22.8-28.549-22.8-28.549,12.74-8.671,25.509,1.792S195.9,513.161,191.9,531.57s-33.845,36.768-71.333,28.667S65.129,525.469,59.233,490.9s14.072-67.769,48-82.667,73.331-18.664,109.334-59.333,38.269-83.946,38.269-83.946,26.143,2.8,37.58-15.406,10.271-47.15,10.271-47.15-5.6,47.618-38.514,50.419c-42.717-5.836-43.183-57.188-43.183-57.188s-7-49.952,36.414-59.522c25.441,1.868,42.483,37.813,42.483,37.813s-4.668-47.151-42.483-50.886c-20.541.467-31.149-29.367-31.149-29.367s-4.8,5.092,22.513-41.825A100.248,100.248,0,0,1,292.15,11.668,116.929,116.929,0,0,1,337.9.033V.026c14-.467,67.691,4.9,95,51.819s19.533,37.722,19.533,37.722-7.628,33.937-28.169,33.47c-37.814,3.735-42.483,50.886-42.483,50.886s17.041-35.945,42.483-37.813c43.417,9.571,36.414,59.522,36.414,59.522s-.466,51.352-43.183,57.188c-32.911-2.8-38.514-50.419-38.514-50.419s-1.166,28.945,10.271,47.15,37.58,15.406,37.58,15.406S429.1,308.234,465.1,348.9s75.406,44.435,109.334,59.333,53.9,48.1,48,82.667-23.845,61.232-61.333,69.333-67.334-10.258-71.333-28.667-1.435-30.2,11.333-40.667,25.509-1.792,25.509-1.792-24.258,3.717-22.8,28.549,27.472,33.038,46.325,29.985,51.065-16.357,52.07-55.661-28.432-49.079-45.966-55.84-58.211-9.894-91.135-30.668C412.129,377.465,391.821,301.6,391.821,301.6s4.917,51.282,13.2,78.895,11.046,33.136,26.824,65.089c26.43,46.943,11.834,92.309,1.973,108.482s-18.935,46.549,3.155,60.75a24.008,24.008,0,0,1-4.628.4C426.329,615.217,415.824,613.38,409.361,601.8Zm-34.535-81.814c-4.248-14.262-18.814-33.379-24.882-50.372a73.086,73.086,0,0,1-3.641-32.468s13.352,33.076,22.151,45.82S382.413,514.83,383.019,530s-5.159,23.972-5.159,23.972S379.075,534.25,374.827,519.989ZM2.039,354.323c8.516-28.322,40.7-36.672,55.711-36.089,28.053,1.089,57.608,23.42,101.19,19.607s71.635-46.3,71.635-46.3-28.053,76.252-76.143,83.876c-23.074,3.659-44.072-4.595-63.327-12.848-20.876-8.948-39.7-17.895-56.9-11.661-33.062,11.982-19.779,42.637-19.779,42.637S-6.476,382.645,2.039,354.323Zm649.86-5.88c-17.608-5.87-36.88,2.555-58.251,10.98-19.711,7.771-41.206,15.541-64.827,12.1-49.231-7.179-77.949-78.975-77.949-78.975s28.718,40,73.334,43.59S599.079,318.7,627.8,317.674c15.364-.549,43.727,7.917,52.446,34.584s-11.355,38.194-11.355,38.194S685.746,359.725,651.9,348.443Z" transform="translate(934.231 1343.765)" fill="#fce3ba"/>
    <path id="Union_4" data-name="Union 4" d="M187.766,80.582c-13.126-1.845-21.336-20.632-18.338-41.961S185.5,1.5,198.622,3.34,219.958,23.972,216.96,45.3c-2.837,20.193-14.7,35.426-27.1,35.427A15.023,15.023,0,0,1,187.766,80.582ZM5.428,45.3C2.43,23.972,10.641,5.185,23.766,3.34s26.2,13.951,29.194,35.281-5.213,40.116-18.338,41.96a15.069,15.069,0,0,1-2.1.147C20.132,80.729,8.266,65.5,5.428,45.3Z" transform="translate(1163.806 1498.039)" fill="#1d353c"/>
    <path id="Path_7" data-name="Path 7" d="M1196.479,1467.454c0-88,76.69-121.635,76.69-121.635s75.459,29.635,77.459,121.635" fill="none" stroke="#d4bf9c" stroke-width="4"/>
  </g>
</svg>
